<svg xmlns="http://www.w3.org/2000/svg" enable-background="new 0 0 24 24" viewBox="0 0 24 24" id="php"><path fill="#878EB7" d="M12,18.5c6.626,0,12-2.908,12-6.5c0-3.592-5.374-6.5-12-6.5C5.374,5.5,0,8.408,0,12C0,15.592,5.374,18.5,12,18.5L12,18.5z"></path><path fill="#23282C" d="M5.029 15.641l.326-1.73c1.541 0 2.497.117 3.382-.737.979-.927 1.234-2.576.536-3.402C8.909 9.339 8.325 9.126 7.529 9.126h-2.65l-1.226 6.515H5.029L5.029 15.641zM6.068 10.154c1.424 0 2.392-.158 2.115 1.325v-.001c-.296 1.564-1.343 1.402-2.629 1.402L6.068 10.154 6.068 10.154zM10.759 13.904l.704-3.731c1.114 0 1.575-.046 1.778.179.21.232.101.486-.476 3.553h1.388c.6-3.172.866-3.843.31-4.369-.528-.502-1.623-.413-2.805-.413l.326-1.73h-1.368L9.39 13.904H10.759L10.759 13.904zM15.787 15.641l.326-1.73c1.62 0 2.516.097 3.383-.737.979-.927 1.234-2.576.536-3.402-.364-.433-.949-.646-1.744-.646h-2.651l-1.23 6.515H15.787L15.787 15.641zM16.822 10.154c1.432 0 2.392-.158 2.115 1.325v-.001c-.3 1.588-1.376 1.402-2.629 1.402L16.822 10.154...-0.695,0.671-1.434,0.742-2.466,0.742c-0.282,0-0.585-0.005-0.916-0.005l-0.326,1.73H3.652L4.338,12H0l0,0c0,3.592,5.374,6.5,12,6.5C18.626,18.5,24,15.592,24,12L24,12L24,12z"></path><path fill="#1E2326" d="M9.49 12H8.032c-.337.806-1.009.885-1.842.885-.204 0-.417-.005-.637-.005L5.72 12H4.338l-.685 3.641h1.377l.326-1.73c.33 0 .634.005.916.005 1.032 0 1.771-.072 2.466-.742C9.08 12.849 9.334 12.436 9.49 12L9.49 12zM11.118 12h-1.37L9.39 13.904h1.369L11.118 12 11.118 12zM14.524 12H13.13c-.09.471-.211 1.088-.365 1.905h1.388C14.298 13.133 14.424 12.509 14.524 12L14.524 12z"></path><path fill="#767C9F" d="M18.788,12h-2.313l-0.166,0.881c0.238,0,0.469,0.007,0.69,0.007C17.795,12.887,18.455,12.8,18.788,12L18.788,12z"></path><path fill="#1E2326" d="M20.248,12h-1.46c-0.333,0.801-0.993,0.887-1.789,0.887c-0.221,0-0.452-0.007-0.69-0.007L16.474,12h-1.38l-0.687,3.641h1.38l0.326-1.73c0.306,0,0.586,0.004,0.844,0.004c1.113,0,1.836-0.064,2.538-0.741C19.839,12.849,20.093,12.436,20.248,12L20.248,12z"></path></svg>